PathFileType	4	(X/Y/Z)	OpenSim_static_markers.trc
DataRate	CameraRate	NumFrames	NumMarkers	Units	OrigDataRate	OrigDataStartFrame	OrigNumFrames
100	100	6	39	m	100	1	6
Frame#	Time	APEX	L1MT	L2MT	L5MT	LASI	LCAL	LGTR	LLEP	LLML	LMEP	LMML	LPS1	LPS2	LSH1	LSH2	LSH3	LTH1	LTH2	LTH3	LTTB	R1MT	R2MT	R5MT	RASI	RCAL	RGTR	RLEP	RLML	RMEP	RMML	RPS1	RPS2	RSH1	RSH2	RSH3	RTH1	RTH2	RTH3	RTTB
				X1	Y1	Z1	X2	Y2	Z2	X3	Y3	Z3	X4	Y4	Z4	X5	Y5	Z5	X6	Y6	Z6	X7	Y7	Z7	X8	Y8	Z8	X9	Y9	Z9	X10	Y10	Z10	X11	Y11	Z11	X12	Y12	Z12	X13	Y13	Z13	X14	Y14	Z14	X15	Y15	Z15	X16	Y16	Z16	X17	Y17	Z17	X18	Y18	Z18	X19	Y19	Z19	X20	Y20	Z20	X21	Y21	Z21	X22	Y22	Z22	X23	Y23	Z23	X24	Y24	Z24	X25	Y25	Z25	X26	Y26	Z26	X27	Y27	Z27	X28	Y28	Z28	X29	Y29	Z29	X30	Y30	Z30	X31	Y31	Z31	X32	Y32	Z32	X33	Y33	Z33	X34	Y34	Z34	X35	Y35	Z35	X36	Y36	Z36	X37	Y37	Z37	X38	Y38	Z38	X39		Y39	Z39	

1	0	-0.91076700	1.63054500	-0.52519700	-0.89410200	0.05937700	-0.60416300	-0.88913300	0.06518100	-0.64099800	-0.89914000	0.05098200	-0.68627200	-0.92097100	0.96183900	-0.62243000	-1.08208900	0.07447700	-0.62251900	-0.99165700	0.87510600	-0.66894500	-0.97246400	0.48313300	-0.65144500	-1.02799000	0.09621100	-0.66871800	-0.99390000	0.45800100	-0.53812000	-1.02212700	0.10347900	-0.58622400	-1.07428000	1.04274900	-0.53702200	-1.08859300	0.97354300	-0.53115300	-1.06820900	0.42489000	-0.66584500	-1.07939500	0.32324900	-0.67742900	-1.02201500	0.31919000	-0.69570800	-1.01466000	0.78078900	-0.68469600	-1.02180500	0.67770900	-0.67422500	-0.96295100	0.67466700	-0.67542100	-0.96682800	0.39382700	-0.60755300	-0.89919100	0.06055600	-0.35683800	-0.90622900	0.06518300	-0.32390700	-0.92523900	0.04407200	-0.27513000	-0.91110200	0.95622000	-0.36799800	-1.08460400	0.07130900	-0.39234400	-1.00102000	0.87012200	-0.32157100	-0.97491600	0.48381400	-0.34200100	-1.05323100	0.09587000	-0.33448600	-0.98340400	0.46026900	-0.45370400	-1.01145400	0.10284700	-0.40793300	-1.07115100	1.05068500	-0.48772500	-1.08282600	0.97726800	-0.46440400	-1.00187600	0.43383400	-0.31967300	-1.02081600	0.33306000	-0.30453300	-1.07783300	0.34163300	-0.31639400	-0.93022300	0.78693500	-0.31621800	-0.92493200	0.68332400	-0.32627100	-0.98266600	0.67838700	-0.31345800	-0.96598700	0.40206800	-0.37889200
2	0.01000000	-0.91106200	1.63061900	-0.52505300	-0.89410800	0.05937300	-0.60416000	-0.88915000	0.06518500	-0.64098600	-0.89911000	0.05100000	-0.68629800	-0.92109400	0.96181900	-0.62261100	-1.08208900	0.07448700	-0.62253700	-0.99174700	0.87511400	-0.66912600	-0.97250200	0.48313300	-0.65153900	-1.02799600	0.09620200	-0.66872700	-0.99392600	0.45802500	-0.53817400	-1.02214100	0.10349300	-0.58624400	-1.07430600	1.04275000	-0.53718200	-1.08861100	0.97353800	-0.53132200	-1.06824500	0.42487300	-0.66595000	-1.07942600	0.32323800	-0.67749400	-1.02203900	0.31918300	-0.69576900	-1.01467900	0.78073900	-0.68492800	-1.02184000	0.67770800	-0.67433900	-0.96298800	0.67467100	-0.67551700	-0.96687000	0.39379000	-0.60769000	-0.89919100	0.06055800	-0.35683600	-0.90622600	0.06517700	-0.32389500	-0.92523100	0.04407100	-0.27514900	-0.91128200	0.95612900	-0.36820700	-1.08460900	0.07130300	-0.39233900	-1.00107100	0.87012500	-0.32169200	-0.97495800	0.48381400	-0.34209600	-1.05322600	0.09589700	-0.33450200	-0.98343300	0.46025500	-0.45377900	-1.01144800	0.10285900	-0.40794700	-1.07121200	1.05072200	-0.48789300	-1.08286400	0.97726300	-0.46457000	-1.00192800	0.43384700	-0.31977200	-1.02083100	0.33308600	-0.30459100	-1.07785400	0.34164500	-0.31644100	-0.93036500	0.78689400	-0.31648600	-0.92499600	0.68334000	-0.32636000	-0.98272300	0.67840600	-0.31358000	-0.96600600	0.40205000	-0.37896100
3	0.02000000	-0.91137400	1.63074600	-0.52489400	-0.89410200	0.05936900	-0.60415600	-0.88915400	0.06519600	-0.64099200	-0.89911600	0.05102200	-0.68630700	-0.92111000	0.96182200	-0.62275600	-1.08209200	0.07448400	-0.62254600	-0.99177900	0.87511800	-0.66925000	-0.97254200	0.48312800	-0.65162300	-1.02799600	0.09619300	-0.66873700	-0.99395000	0.45802500	-0.53825000	-1.02213300	0.10350100	-0.58627200	-1.07434400	1.04273500	-0.53734500	-1.08862100	0.97352400	-0.53148800	-1.06828700	0.42486200	-0.66601300	-1.07945200	0.32323100	-0.67756700	-1.02206700	0.31916400	-0.69584000	-1.01471900	0.78070600	-0.68504200	-1.02189000	0.67770700	-0.67448400	-0.96301700	0.67467600	-0.67561700	-0.96690700	0.39379600	-0.60777300	-0.89918700	0.06055200	-0.35683100	-0.90622500	0.06518600	-0.32389100	-0.92522800	0.04407400	-0.27513900	-0.91138300	0.95609300	-0.36837800	-1.08460400	0.07130700	-0.39233300	-1.00128700	0.87026400	-0.32189800	-0.97498300	0.48381800	-0.34215400	-1.05321700	0.09590500	-0.33451900	-0.98345800	0.46027400	-0.45385100	-1.01145100	0.10286000	-0.40796100	-1.07123000	1.05071900	-0.48803600	-1.08288500	0.97724100	-0.46472100	-1.00194300	0.43386000	-0.31985800	-1.02087700	0.33304900	-0.30467100	-1.07788700	0.34164200	-0.31650800	-0.93046200	0.78688000	-0.31660500	-0.92504800	0.68335000	-0.32647100	-0.98279800	0.67843300	-0.31367600	-0.96602400	0.40205400	-0.37903900
4	0.03000000	-0.91173200	1.63083200	-0.52488100	-0.89411600	0.05938200	-0.60415800	-0.88915900	0.06520800	-0.64099000	-0.89908600	0.05103300	-0.68627700	-0.92109000	0.96179500	-0.62285500	-1.08209600	0.07447900	-0.62256100	-0.99182000	0.87511900	-0.66936900	-0.97260000	0.48314700	-0.65170800	-1.02800700	0.09618000	-0.66874800	-0.99401000	0.45805000	-0.53833500	-1.02213100	0.10349600	-0.58630600	-1.07436700	1.04274000	-0.53749700	-1.08865500	0.97351800	-0.53164800	-1.06833200	0.42483800	-0.66607500	-1.07949000	0.32322100	-0.67762500	-1.02210700	0.31915300	-0.69590200	-1.01476300	0.78069800	-0.68517400	-1.02192200	0.67769800	-0.67462000	-0.96304900	0.67466300	-0.67572800	-0.96701000	0.39382200	-0.60783100	-0.89918700	0.06054000	-0.35683200	-0.90623100	0.06519000	-0.32390000	-0.92523800	0.04407700	-0.27513800	-0.91142000	0.95609800	-0.36850200	-1.08460400	0.07131700	-0.39234400	-1.00137900	0.87029000	-0.32212500	-0.97502900	0.48383100	-0.34222100	-1.05322100	0.09590800	-0.33452400	-0.98349600	0.46028800	-0.45391400	-1.01144700	0.10286400	-0.40797300	-1.07126900	1.05072300	-0.48820000	-1.08287500	0.97725500	-0.46496200	-1.00197300	0.43387300	-0.31994000	-1.02090100	0.33305200	-0.30472300	-1.07790000	0.34165700	-0.31656700	-0.93051800	0.78689500	-0.31672400	-0.92510500	0.68337200	-0.32656600	-0.98285600	0.67843500	-0.31383800	-0.96607700	0.40206500	-0.37910800
5	0.04000000	-0.91198100	1.63090500	-0.52485900	-0.89411100	0.05937900	-0.60415300	-0.88916300	0.06520900	-0.64099500	-0.89912300	0.05101000	-0.68629500	-0.92112600	0.96180500	-0.62296700	-1.08209800	0.07448500	-0.62256100	-0.99185700	0.87512500	-0.66948600	-0.97266500	0.48315700	-0.65180000	-1.02799300	0.09619700	-0.66876400	-0.99431800	0.45789600	-0.53859600	-1.02213300	0.10349700	-0.58632000	-1.07446100	1.04273600	-0.53771400	-1.08868400	0.97352900	-0.53179600	-1.06837500	0.42483700	-0.66614900	-1.07951900	0.32320500	-0.67767700	-1.02214900	0.31913400	-0.69595500	-1.01480600	0.78069200	-0.68531200	-1.02196200	0.67768900	-0.67473400	-0.96309600	0.67466100	-0.67582200	-0.96708300	0.39382300	-0.60789200	-0.89918700	0.06054200	-0.35683500	-0.90620300	0.06519400	-0.32390700	-0.92522900	0.04407400	-0.27514400	-0.91146300	0.95609900	-0.36862100	-1.08459500	0.07131800	-0.39234500	-1.00155800	0.87038600	-0.32221400	-0.97504900	0.48383500	-0.34229900	-1.05321900	0.09591300	-0.33453800	-0.98352800	0.46025900	-0.45398000	-1.01144700	0.10285500	-0.40797300	-1.07131100	1.05076600	-0.48838000	-1.08290600	0.97727700	-0.46512600	-1.00201200	0.43388700	-0.32001800	-1.02091300	0.33306300	-0.30477000	-1.07791800	0.34165400	-0.31662800	-0.93059500	0.78690400	-0.31685100	-0.92517300	0.68335700	-0.32672700	-0.98292800	0.67846900	-0.31393900	-0.96611600	0.40207300	-0.37917500
6	0.05000000	-0.91221100	1.63099600	-0.52485000	-0.89413100	0.05938100	-0.60416200	-0.88916500	0.06519600	-0.64099700	-0.89908700	0.05101600	-0.68626900	-0.92114800	0.96181800	-0.62309300	-1.08209000	0.07445900	-0.62256400	-0.99189700	0.87511800	-0.66957900	-0.97270300	0.48317700	-0.65190000	-1.02801300	0.09617800	-0.66877700	-0.99438700	0.45790100	-0.53869500	-1.02215400	0.10351500	-0.58631000	-1.07455800	1.04277100	-0.53792700	-1.08864000	0.97346800	-0.53202200	-1.06842100	0.42483200	-0.66621000	-1.07955900	0.32318900	-0.67772500	-1.02218900	0.31911700	-0.69600500	-1.01485000	0.78069100	-0.68545700	-1.02200100	0.67768300	-0.67486300	-0.96314000	0.67464600	-0.67591600	-0.96712900	0.39383300	-0.60798000	-0.89918700	0.06054300	-0.35684200	-0.90621800	0.06516600	-0.32391100	-0.92522300	0.04406800	-0.27514200	-0.91149600	0.95609000	-0.36874300	-1.08459500	0.07131400	-0.39236500	-1.00161600	0.87041300	-0.32230500	-0.97508100	0.48383400	-0.34240400	-1.05322900	0.09595700	-0.33454400	-0.98358300	0.46026000	-0.45404100	-1.01144600	0.10284900	-0.40798200	-1.07133300	1.05076400	-0.48856400	-1.08294700	0.97727900	-0.46527800	-1.00206100	0.43389000	-0.32010400	-1.02094500	0.33307500	-0.30483800	-1.07794300	0.34165700	-0.31668300	-0.93066100	0.78691600	-0.31700300	-0.92523600	0.68336300	-0.32681200	-0.98298500	0.67847000	-0.31404000	-0.96613100	0.40207600	-0.37923300
